<svg width="97" height="42" viewBox="0 0 97 42" fill="none" xmlns="http://www.w3.org/2000/svg">
<g clip-path="url(#clip0_14277_100206)">
<path d="M20.6361 38.7829C17.175 38.7764 13.7936 37.7274 10.9192 35.7686C8.04475 33.8098 5.80648 31.029 4.48731 27.7779C3.16813 24.5268 2.82728 20.9513 3.50784 17.5034C4.1884 14.0555 5.85982 10.89 8.31079 8.40707C10.7618 5.92417 13.8823 4.23534 17.2778 3.55407C20.6733 2.87281 24.1914 3.2297 27.3873 4.57963C30.5832 5.92957 33.3134 8.21193 35.2328 11.1382C37.1523 14.0644 38.1747 17.5032 38.1708 21.0198C38.1683 23.3562 37.7126 25.6692 36.8299 27.8265C35.9472 29.9839 34.6546 31.9434 33.0262 33.5931C31.3978 35.2427 29.4654 36.5501 27.3394 37.4406C25.2135 38.3311 22.9356 38.7873 20.6361 38.7829ZM20.7203 3.69921e-05C16.633 -0.00775604 12.6351 1.21592 9.23222 3.51636C5.82929 5.8168 3.17407 9.09071 1.60224 12.9242C0.0304108 16.7577 -0.387457 20.9786 0.401467 25.0534C1.19039 29.1281 3.15069 32.8737 6.03452 35.8167C8.91835 38.7596 12.5962 40.7677 16.6032 41.5871C20.6102 42.4066 24.7663 42.0005 28.5462 40.4203C32.326 38.8401 35.5599 36.1567 37.839 32.7094C40.118 29.262 41.3399 25.2055 41.3501 21.0527C41.357 18.2938 40.8287 15.5606 39.7954 13.0093C38.7622 10.4579 37.2443 8.13844 35.3285 6.18335C33.4127 4.22826 31.1364 2.67588 28.6299 1.61492C26.1234 0.55396 23.4356 0.00521417 20.7203 3.69921e-05Z" fill="#EE192F"/>
<path d="M35.2896 19.8981H27.8238C27.7574 19.8923 27.6906 19.9011 27.6278 19.9238C27.5651 19.9465 27.5079 19.9826 27.46 20.0297C27.4122 20.0768 27.3748 20.1337 27.3504 20.1967C27.326 20.2596 27.3152 20.3272 27.3187 20.3948V22.3356C27.3199 22.3985 27.3336 22.4606 27.3591 22.5179C27.3847 22.5753 27.4214 22.6268 27.4672 22.6692C27.5129 22.7117 27.5667 22.7443 27.6252 22.765C27.6837 22.7856 27.7458 22.794 27.8076 22.7895H32.6639C32.0358 25.181 30.2552 26.5329 27.7234 26.5296C24.8776 26.5296 22.8379 24.227 22.8444 21.0099C22.8508 17.7928 24.9002 15.5033 27.7428 15.5099C29.4328 15.5099 30.5854 16.056 31.7833 17.2796C31.8222 17.3321 31.8726 17.3746 31.9305 17.4039C31.9884 17.4333 32.0521 17.4485 32.1168 17.4485C32.1814 17.4485 32.2452 17.4333 32.3031 17.4039C32.361 17.3746 32.4113 17.3321 32.4503 17.2796L33.7744 15.7895C33.8603 15.6983 33.9083 15.5769 33.9083 15.4507C33.9083 15.3245 33.8603 15.2031 33.7744 15.1119C33.0027 14.2922 32.0703 13.6462 31.0375 13.2156C30.0046 12.785 28.8944 12.5793 27.7784 12.6119C23.1552 12.6053 19.8172 16.1185 19.8075 20.9967C19.7978 25.875 23.1228 29.4046 27.704 29.4145C32.3693 29.4145 35.7558 25.8619 35.7655 21.0757V20.3948C35.7687 20.3298 35.7586 20.2649 35.736 20.2041C35.7133 20.1433 35.6786 20.0878 35.6339 20.0412C35.5893 19.9946 35.5357 19.9579 35.4764 19.9332C35.4172 19.9086 35.3536 19.8966 35.2896 19.8981Z" fill="#EE192F"/>
<path d="M7.80904 23.9079L6.38451 25.4869C6.34259 25.5277 6.30924 25.5767 6.28646 25.631C6.26367 25.6853 6.25193 25.7437 6.25193 25.8027C6.25193 25.8617 6.26367 25.9201 6.28646 25.9743C6.30924 26.0286 6.34259 26.0776 6.38451 26.1185C8.24612 28.3816 10.289 29.3783 12.9568 29.3816C16.5181 29.3816 18.9593 27.4967 18.9657 24.6514C18.9657 22.2566 17.729 20.8092 15.1519 20.0823L12.3028 19.2665C10.5254 18.7665 9.81634 18.1316 9.81634 17.2303C9.81634 16.102 10.9754 15.3356 12.7982 15.3389C14.132 15.3389 15.2425 15.931 16.2624 17.0625C16.294 17.1246 16.3419 17.1767 16.4007 17.213C16.4595 17.2494 16.527 17.2686 16.5958 17.2686C16.6647 17.2686 16.7322 17.2494 16.791 17.213C16.8498 17.1767 16.8976 17.1246 16.9293 17.0625L18.3085 15.6217C18.3944 15.5305 18.4423 15.4092 18.4423 15.2829C18.4423 15.1567 18.3944 15.0353 18.3085 14.9441C16.9779 13.4046 15.0709 12.5889 12.8046 12.5856C9.38898 12.5757 6.93813 14.5132 6.93166 17.2698C6.93166 19.3454 8.43713 21.0658 10.9689 21.7928L13.6334 22.5658C15.3202 23.0658 15.9872 23.6546 15.9839 24.6481C15.9839 25.7764 14.9155 26.4967 13.1349 26.4935C11.1923 26.4935 9.67065 25.6283 8.47275 23.954C8.43746 23.8987 8.38997 23.8525 8.33406 23.8191C8.27814 23.7856 8.21534 23.7659 8.15061 23.7614C8.08589 23.757 8.02103 23.7679 7.96118 23.7933C7.90133 23.8187 7.84813 23.858 7.8058 23.9079" fill="#EE192F"/>
<path d="M52.7725 7.85186C53.6305 7.85186 54.2197 7.39791 54.2197 6.69396C54.2197 5.99002 53.6305 5.53607 52.7725 5.53607H51.0566V7.8387L52.7725 7.85186ZM49.3148 3.92094H52.9474C54.6989 3.92094 55.9907 5.06896 55.9907 6.69067C55.9907 8.31238 54.6957 9.46041 52.9474 9.46041H51.0437V12.1249H49.3148V3.92094Z" fill="#202020"/>
<path d="M60.7532 10.1973V9.60844C60.3375 9.45779 59.8994 9.38101 59.4581 9.38146C58.8333 9.38146 58.3412 9.74988 58.3412 10.2532C58.3412 10.7565 58.775 11.0657 59.3642 11.0657C60.0118 11.0657 60.6593 10.7565 60.7629 10.1808M62.4205 8.43738V12.1282H60.7629V11.513C60.5332 11.7589 60.2557 11.9537 59.9481 12.0851C59.6405 12.2164 59.3094 12.2815 58.9757 12.2762C57.6807 12.2762 56.6835 11.4867 56.6835 10.3025C56.6835 9.1183 57.8005 8.24659 59.2121 8.24659C59.7432 8.25328 60.2687 8.35806 60.7629 8.5558V8.43738C60.7629 7.77949 60.3647 7.20712 59.3642 7.20712C58.8116 7.22448 58.2711 7.3756 57.7875 7.64791L57.2113 6.49001C57.992 6.06111 58.8622 5.82767 59.7495 5.80909C61.3359 5.80909 62.4173 6.82554 62.4173 8.44067" fill="#202020"/>
<path d="M63.3983 11.3387L64.1397 10.1315C64.7279 10.5759 65.4399 10.819 66.1729 10.8255C66.6326 10.8255 66.9596 10.6348 66.9596 10.3584C66.9596 9.97686 66.5128 9.85515 65.888 9.70054C64.6415 9.39133 63.6767 9.04265 63.667 7.82554C63.6573 6.60844 64.6091 5.81896 66.0434 5.81896C66.8974 5.83224 67.7294 6.09613 68.4392 6.57883L67.7463 7.82225C67.2379 7.48795 66.6515 7.29616 66.0466 7.26633C65.6225 7.26633 65.3311 7.42094 65.3311 7.63804C65.3311 7.96699 65.5772 8.06896 66.3995 8.29594C67.4452 8.57225 68.6108 8.92751 68.6108 10.2696C68.6108 11.4867 67.6395 12.263 66.1405 12.263C65.1516 12.2672 64.1889 11.94 63.4015 11.3321" fill="#202020"/>
<path d="M69.2842 11.3387L70.0256 10.1315C70.6138 10.5759 71.3258 10.819 72.0588 10.8255C72.5185 10.8255 72.8455 10.6348 72.8455 10.3584C72.8455 9.97686 72.3987 9.85515 71.7771 9.70054C70.5307 9.39133 69.5659 9.04265 69.5561 7.82554C69.5464 6.60844 70.4983 5.81896 71.9325 5.81896C72.791 5.82971 73.6278 6.0937 74.3413 6.57883L73.6484 7.82225C73.1374 7.48931 72.5487 7.29977 71.9422 7.27291C71.5181 7.27291 71.2267 7.42752 71.2267 7.64462C71.2267 7.97357 71.4728 8.07554 72.2951 8.30252C73.3409 8.57883 74.5064 8.93409 74.5064 10.2762C74.5064 11.4933 73.5351 12.2696 72.0361 12.2696C71.0428 12.2766 70.0751 11.9493 69.2842 11.3387Z" fill="#202020"/>
<path d="M75.646 5.95383H77.3619V12.1282H75.646V5.95383ZM75.5748 4.1512C75.5767 3.96533 75.6326 3.78418 75.7354 3.63045C75.8383 3.47672 75.9835 3.35725 76.1529 3.28702C76.3223 3.21679 76.5083 3.19893 76.6876 3.23567C76.8669 3.27241 77.0316 3.36212 77.161 3.49356C77.2903 3.62499 77.3786 3.7923 77.4148 3.97451C77.451 4.15672 77.4334 4.34572 77.3643 4.51782C77.2951 4.68991 77.1775 4.83745 77.0262 4.94194C76.8749 5.04642 76.6966 5.10319 76.5137 5.10515C76.2647 5.10515 76.0259 5.00464 75.8498 4.82574C75.6737 4.64684 75.5748 4.4042 75.5748 4.1512Z" fill="#202020"/>
<path d="M83.5101 9.03278C83.498 8.69829 83.3892 8.37482 83.1973 8.10275C83.0054 7.83068 82.7389 7.62206 82.4311 7.50293C82.1232 7.3838 81.7876 7.35943 81.4662 7.43287C81.1448 7.50631 80.8518 7.6743 80.6238 7.91588C80.3957 8.15746 80.2428 8.46192 80.184 8.79127C80.1252 9.12062 80.1632 9.46026 80.2932 9.7678C80.4233 10.0753 80.6396 10.3372 80.9151 10.5206C81.1907 10.704 81.5133 10.8009 81.8428 10.7992C82.293 10.7855 82.72 10.5927 83.0319 10.2623C83.3437 9.93197 83.5154 9.49046 83.5101 9.03278ZM78.5145 9.03278C78.5145 7.2762 80.0329 5.80909 81.8428 5.80909C82.6988 5.80094 83.5239 6.13385 84.1412 6.73646C84.7585 7.33906 85.1189 8.16341 85.1451 9.03278C85.1073 9.90038 84.7416 10.7197 84.124 11.3201C83.5064 11.9205 82.6846 12.2556 81.8298 12.2556C80.9751 12.2556 80.1533 11.9205 79.5357 11.3201C78.9181 10.7197 78.5523 9.90038 78.5145 9.03278Z" fill="#202020"/>
<path d="M92.0767 8.19725V12.1282H90.4191V8.55251C90.4191 7.78936 89.9497 7.26304 89.2665 7.26304C89.1056 7.2551 88.9448 7.27985 88.7935 7.33586C88.6421 7.39186 88.5032 7.47798 88.3851 7.58918C88.2669 7.70038 88.1717 7.83442 88.1051 7.98346C88.0386 8.13249 88.0019 8.29352 87.9974 8.45712V8.42094V12.1282H86.2815V5.95383H87.9974V6.73015C88.2046 6.4352 88.4803 6.1968 88.7999 6.03613C89.1196 5.87545 89.4734 5.79746 89.8299 5.80909C91.1476 5.80909 92.0962 6.79594 92.0962 8.19725" fill="#202020"/>
<path d="M49.386 17.1775H51.1149L53.6175 21.8124L56.1105 17.1775H57.8523V25.3847H56.1105V20.2696L53.6175 24.9045L51.1149 20.2696V25.3847H49.386V17.1775Z" fill="#202020"/>
<path d="M63.1878 23.4374V22.8617C62.7722 22.7111 62.3341 22.6343 61.8928 22.6348C61.2679 22.6348 60.7758 23.0065 60.7758 23.5065C60.7758 24.0065 61.2097 24.319 61.7989 24.319C62.4464 24.319 63.0939 24.0098 63.1975 23.4341M64.8552 21.6907V25.3848H63.1975V24.763C62.9678 25.0089 62.6904 25.2037 62.3828 25.3351C62.0751 25.4664 61.744 25.5315 61.4104 25.5262C60.1154 25.5262 59.1182 24.7367 59.1182 23.5525C59.1182 22.3683 60.2352 21.4966 61.6467 21.4966C62.1779 21.5033 62.7033 21.6081 63.1975 21.8058V21.6874C63.1975 21.0295 62.7961 20.4571 61.7989 20.4571C61.2447 20.476 60.7029 20.6294 60.219 20.9045L59.6362 19.7367C60.415 19.3178 61.2804 19.0924 62.1615 19.0788C63.7479 19.0788 64.8293 20.0953 64.8293 21.7104" fill="#202020"/>
<path d="M70.8253 22.2894C70.8253 21.263 70.1778 20.5328 69.2745 20.5328C68.3712 20.5328 67.6557 21.2598 67.6557 22.2894C67.6557 23.319 68.3259 24.0558 69.2745 24.0558C70.2231 24.0558 70.8253 23.3288 70.8253 22.2894ZM72.5412 17.0262V25.3847H70.8253V24.4999C70.5893 24.8241 70.2805 25.0864 69.9246 25.2649C69.5687 25.4434 69.176 25.533 68.7791 25.5262C67.1603 25.5262 65.9819 24.1874 65.9819 22.2894C65.9819 20.3913 67.1571 19.0657 68.7791 19.0657C69.176 19.0589 69.5687 19.1485 69.9246 19.327C70.2805 19.5055 70.5893 19.7678 70.8253 20.092V17.0328L72.5412 17.0262Z" fill="#202020"/>
<path d="M75.4939 21.6084H78.2102C78.1412 21.3165 77.974 21.0582 77.7376 20.878C77.5012 20.6978 77.2103 20.6072 76.9152 20.6216C76.6079 20.6155 76.3064 20.7074 76.0532 20.8844C75.8 21.0614 75.6078 21.3146 75.5036 21.6084M78.3235 23.4374L79.4178 24.5722C78.7349 25.1895 77.8519 25.5292 76.9378 25.5262C76.5132 25.5393 76.0904 25.4643 75.6953 25.3059C75.3001 25.1475 74.9409 24.909 74.6394 24.6049C74.338 24.3008 74.1007 23.9374 73.942 23.5371C73.7833 23.1367 73.7066 22.7077 73.7164 22.2762C73.705 21.8559 73.7775 21.4377 73.9296 21.0467C74.0816 20.6557 74.3101 20.3 74.6011 20.0012C74.8922 19.7024 75.2399 19.4666 75.6231 19.3081C76.0064 19.1495 76.4173 19.0716 76.831 19.0788C78.7347 19.0788 79.8516 20.5492 79.8516 22.8782H75.468C75.5511 23.2026 75.7389 23.4893 76.0012 23.6926C76.2635 23.8959 76.5853 24.0041 76.9152 23.9999C77.4303 23.9887 77.9252 23.7943 78.3138 23.4505" fill="#202020"/>
<path d="M52.7725 34.3617C53.6305 34.3617 54.2197 33.9078 54.2197 33.2038C54.2197 32.4999 53.6305 32.0459 52.7725 32.0459H51.0566V34.3486L52.7725 34.3617ZM49.3148 30.4308H52.9474C54.6989 30.4308 55.9907 31.5788 55.9907 33.2038C55.9907 34.8288 54.6957 35.9736 52.9474 35.9736H51.0437V38.638H49.3148V30.4308Z" fill="#202020"/>
<path d="M61.6824 35.5459C61.6703 35.2114 61.5615 34.888 61.3696 34.6159C61.1777 34.3438 60.9112 34.1352 60.6033 34.0161C60.2954 33.897 59.9599 33.8726 59.6385 33.946C59.317 34.0195 59.024 34.1875 58.796 34.429C58.568 34.6706 58.415 34.9751 58.3563 35.3044C58.2975 35.6338 58.3355 35.9734 58.4655 36.281C58.5955 36.5885 58.8118 36.8503 59.0874 37.0338C59.3629 37.2172 59.6856 37.3141 60.015 37.3124C60.4653 37.2986 60.8923 37.1058 61.2041 36.7755C61.5159 36.4451 61.6877 36.0036 61.6824 35.5459ZM56.6868 35.5459C56.6868 33.7894 58.2052 32.3223 60.015 32.3223C60.6379 32.3513 61.2386 32.5655 61.7427 32.9384C62.2467 33.3113 62.6318 33.8265 62.8502 34.4198C63.0686 35.0132 63.1107 35.6587 62.9711 36.2761C62.8316 36.8936 62.5166 37.4557 62.0653 37.8929C61.614 38.33 61.0462 38.6228 60.4326 38.7349C59.8189 38.847 59.1863 38.7735 58.6134 38.5236C58.0405 38.2736 57.5525 37.8581 57.21 37.3287C56.8675 36.7994 56.6855 36.1794 56.6868 35.5459Z" fill="#202020"/>
<path d="M64.0199 37.8519L64.7516 36.6446C65.3398 37.0891 66.0518 37.3322 66.7848 37.3387C67.2445 37.3387 67.5715 37.1479 67.5715 36.8716C67.5715 36.49 67.1247 36.3683 66.4999 36.2137C65.2534 35.9012 64.2886 35.5558 64.2789 34.3387C64.2692 33.1216 65.221 32.3321 66.6553 32.3321C67.5108 32.3452 68.3442 32.6103 69.0543 33.0953L68.3615 34.3387C67.8505 34.0056 67.2618 33.8161 66.6553 33.7894C66.2312 33.7894 65.9398 33.944 65.9398 34.1611C65.9398 34.49 66.1858 34.592 67.0082 34.819C68.0539 35.092 69.2194 35.4538 69.2194 36.7926C69.2194 38.0097 68.2482 38.7861 66.7492 38.7861C65.7603 38.7902 64.7976 38.463 64.0102 37.8551" fill="#202020"/>
<path d="M69.9317 37.8519L70.6731 36.6446C71.2613 37.0891 71.9733 37.3322 72.7063 37.3387C73.166 37.3387 73.493 37.1479 73.493 36.8716C73.493 36.49 73.0463 36.3683 72.4246 36.2137C71.1782 35.9012 70.2134 35.5558 70.2037 34.3387C70.1939 33.1216 71.1458 32.3321 72.58 32.3321C73.4356 32.3452 74.269 32.6103 74.9791 33.0953L74.2862 34.3387C73.7752 34.0058 73.1865 33.8162 72.58 33.7894C72.1559 33.7894 71.8645 33.944 71.8645 34.1611C71.8645 34.49 72.1106 34.592 72.9329 34.819C73.9787 35.092 75.1442 35.4538 75.1442 36.7926C75.1442 38.0097 74.1729 38.7861 72.6739 38.7861C71.685 38.7902 70.7224 38.463 69.9349 37.8551" fill="#202020"/>
<path d="M76.2677 32.4637H77.9836V38.638H76.2677V32.4637ZM76.1964 30.6611C76.199 30.4754 76.2554 30.2945 76.3586 30.1412C76.4618 29.9879 76.6073 29.869 76.7767 29.7993C76.9461 29.7295 77.132 29.7121 77.3112 29.7492C77.4903 29.7863 77.6546 29.8763 77.7837 30.0079C77.9127 30.1394 78.0007 30.3067 78.0366 30.4889C78.0725 30.671 78.0547 30.8598 77.9855 31.0317C77.9163 31.2036 77.7987 31.351 77.6475 31.4553C77.4963 31.5596 77.3181 31.6163 77.1353 31.6183C77.0118 31.6183 76.8894 31.5935 76.7753 31.5454C76.6611 31.4972 76.5575 31.4267 76.4703 31.3377C76.383 31.2488 76.314 31.1433 76.267 31.0271C76.22 30.911 76.196 30.7866 76.1964 30.6611Z" fill="#202020"/>
<path d="M84.3551 35.5459C84.3551 34.5196 83.6849 33.7894 82.7363 33.7894C82.3366 33.7916 81.9532 33.9506 81.6661 34.2331C81.3789 34.5157 81.2103 34.9 81.1952 35.3058V35.7828C81.2891 36.6907 81.901 37.3124 82.7363 37.3124C83.6882 37.3124 84.3551 36.5854 84.3551 35.5459ZM86.0257 35.5459C86.0257 37.444 84.8505 38.7828 83.2284 38.7828C82.8348 38.7898 82.4451 38.7016 82.0916 38.5254C81.738 38.3492 81.4308 38.0902 81.1952 37.7696V38.6413H79.4793V30.2894H81.1952V33.3223C81.4346 33.0077 81.7432 32.7546 82.0964 32.5832C82.4495 32.4118 82.8372 32.3269 83.2284 32.3354C84.8472 32.3354 86.0257 33.6742 86.0257 35.5591" fill="#202020"/>
<path d="M88.9492 30.2894H87.2333V38.638H88.9492V30.2894Z" fill="#202020"/>
<path d="M91.889 34.8683H94.6053C94.5363 34.5764 94.3692 34.318 94.1327 34.1379C93.8963 33.9577 93.6054 33.867 93.3103 33.8815C93.003 33.8754 92.7015 33.9673 92.4483 34.1443C92.1951 34.3213 92.0029 34.5745 91.8987 34.8683M94.7186 36.6973L95.8129 37.8321C95.13 38.4494 94.247 38.789 93.3329 38.7861C92.9067 38.8006 92.482 38.7264 92.085 38.568C91.6881 38.4096 91.3272 38.1704 91.0246 37.865C90.7219 37.5597 90.484 37.1947 90.3253 36.7925C90.1666 36.3903 90.0905 35.9594 90.1018 35.5262C90.0889 35.1029 90.1612 34.6813 90.3142 34.2873C90.4673 33.8934 90.6978 33.5353 90.9918 33.235C91.2859 32.9348 91.6371 32.6986 92.0241 32.5411C92.411 32.3836 92.8256 32.308 93.2423 32.319C95.146 32.319 96.2629 33.7894 96.2629 36.1183H91.8663C91.9495 36.4427 92.1372 36.7294 92.3995 36.9327C92.6618 37.136 92.9836 37.2442 93.3135 37.24C93.8286 37.2288 94.3236 37.0344 94.7121 36.6907" fill="#202020"/>
</g>
<defs>
<clipPath id="clip0_14277_100206">
<rect width="96.25" height="42" fill="white"/>
</clipPath>
</defs>
</svg>
